<?xml version="1.0" encoding="UTF-8" standalone="no"?>
<!-- Created with Inkscape (http://www.inkscape.org/) -->

<svg
   width="126mm"
   height="46mm"
   viewBox="0 0 126 46"
   version="1.1"
   id="svg5"
   inkscape:version="1.1.1 (3bf5ae0d25, 2021-09-20)"
   sodipodi:docname="logo_resefer.svg"
   inkscape:export-filename="C:\proyectos\factusunat\frontend\web\img\logo_reser.png"
   inkscape:export-xdpi="500"
   inkscape:export-ydpi="500"
   xmlns:inkscape="http://www.inkscape.org/namespaces/inkscape"
   xmlns:sodipodi="http://sodipodi.sourceforge.net/DTD/sodipodi-0.dtd"
   xmlns="http://www.w3.org/2000/svg"
   xmlns:svg="http://www.w3.org/2000/svg">
  <sodipodi:namedview
     id="namedview7"
     pagecolor="#ffffff"
     bordercolor="#666666"
     borderopacity="1.0"
     inkscape:pageshadow="2"
     inkscape:pageopacity="0.0"
     inkscape:pagecheckerboard="0"
     inkscape:document-units="mm"
     showgrid="false"
     inkscape:zoom="0.32631944"
     inkscape:cx="396.85039"
     inkscape:cy="433.62418"
     inkscape:window-width="1024"
     inkscape:window-height="715"
     inkscape:window-x="-8"
     inkscape:window-y="-8"
     inkscape:window-maximized="1"
     inkscape:current-layer="layer1" />
  <defs
     id="defs2" />
  <g
     inkscape:label="Capa 1"
     inkscape:groupmode="layer"
     id="layer1">
    <circle
       style="font-variation-settings:normal;opacity:1;vector-effect:none;fill:#3333ff;fill-opacity:1;fill-rule:evenodd;stroke:none;stroke-linecap:butt;stroke-linejoin:miter;stroke-miterlimit:4;stroke-dasharray:none;stroke-dashoffset:0;stroke-opacity:1;-inkscape-stroke:none;stop-color:#000000;stop-opacity:1"
       id="path23154"
       cx="101.8912"
       cy="156.45702"
       r="0" />
    <circle
       style="font-variation-settings:normal;vector-effect:none;fill:#660000;fill-opacity:1;fill-rule:evenodd;stroke:none;stroke-width:0.999998;stroke-linecap:butt;stroke-linejoin:miter;stroke-miterlimit:4;stroke-dasharray:none;stroke-dashoffset:0;stroke-opacity:1;-inkscape-stroke:none;stop-color:#000000"
       id="path23154-5"
       cx="102.19424"
       cy="156.94846"
       r="0" />
    <path
       id="rect2302-9"
       style="fill:#ffffff;fill-opacity:0.75388;fill-rule:evenodd;stroke-width:0.264583"
       d="m 38.275303,5.4531746 0.02379,2.32803 6.36292,0.12764 -0.05736,9.6118104 -5.880777,0.33332 -0.161232,9.37824 -2.017964,0.39739 0.09767,-9.74256 -16.60622,-0.38861 -15.8290082,2.66341 -0.04237,11.33729 10.9011422,4.21731 6.409428,-0.0765 0.03773,0.7829 -0.899687,0.0491 -0.0062,0.93586 2.274279,-0.0574 0.0041,-0.97307 -0.577225,0.0124 -0.03721,-0.73897 1.578716,-0.14521 c 0.06703,-0.38231 0.167696,-0.74882 0.296622,-1.09709 a 6.9999999,7.9644456 0 0 1 6.752045,-6.18257 6.9999999,7.9644456 0 0 1 6.985103,7.65638 l 11.658203,0.47491 a 6.9999999,7.9644456 0 0 1 -0.02326,-0.16692 6.9999999,7.9644456 0 0 1 6.999571,-7.96437 6.9999999,7.9644456 0 0 1 7.000089,7.96437 6.9999999,7.9644456 0 0 1 -0.078,0.56017 l 1.757,-0.0253 0.0398,0.58653 -0.97668,0.0114 0.015,0.8077 2.37763,-0.0222 -0.032,-0.8139 -0.67283,0.0253 -0.0134,-0.70538 1.35599,-1.10898 0.0765,-5.26169 -0.64337,-0.0181 -0.0522,-1.93321 -2.33319,-0.10646 -0.0346,2.00402 -1.5043,0.0439 -2.56109,-2.76262 -1.59473,-0.0202 -0.11731,-0.50023 -1.038178,-1.64899 0.01654,-1.72703 1.938378,-0.004 0.016,-0.52296 -1.932185,-0.0398 -5.29e-4,-0.38396 2.149224,0.0868 5.3e-4,5.3e-4 c 0.14656,0.31159 0.42775,0.50541 0.73329,0.50539 0.25154,-2e-5 0.47002,-0.1356 0.62321,-0.34003 l 0.3452,0.37569 -0.2496,0.23047 2.79932,3.14503 0.29972,-0.27647 0.40773,0.4439 c -0.0592,0.19668 0.004,0.42423 0.17053,0.6103 l 5.3e-4,5.3e-4 c 0.27051,0.30202 0.73394,0.41375 1.05885,0.25528 l 1.22525,-0.31161 c 3.99888,4.56558 8.06669,9.54206 8.06669,9.54206 0,0 4.83844,0.0196 6.43061,0.0196 l 0.0227,-1.85208 h 5.42396 l 0.6873,0.67592 0.0429,0.709 2.44636,0.99684 1.66191,-0.6041 0.017,-0.30695 5.90662,-1.0387 -0.0687,-0.82992 -5.92574,1.04231 -1.11311,-0.33538 0.64958,-0.89814 4.17494,0.0315 2.21433,0.15968 0.71675,0.60926 2.626202,-2.7218 v -1.50636 h 21.28811 v -1.68724 l -21.40697,0.0641 c 0.0758,-0.13785 0.11886,-0.29655 0.11886,-0.46561 v -1.01234 h 19.03811 v 0.32763 c 0,0.40854 0.32889,0.73742 0.73743,0.73742 h 1.12396 c 0.40854,0 0.73742,-0.32888 0.73742,-0.73742 v -0.38396 h 1.12345 v -1.01802 h -1.12345 v -0.2837 c 0,-0.40854 -0.32888,-0.73743 -0.73742,-0.73743 h -1.12396 c -0.40854,0 -0.73743,0.32889 -0.73743,0.73743 v 0.39015 h -19.0382 v -0.34933 c 0,-0.53405 -0.42972,-0.96376 -0.96377,-0.96376 h -0.562242 c -0.53405,0 -0.96428,0.42971 -0.96428,0.96376 v 0.34933 h -8.51111 v -0.87023 h -2.96932 v -0.8909 h -7.25693 v 0.8909 h -2.02933 v 2.58021 h 2.02933 v 0.79891 l -1.91874,0.006 -1.59577,0.45527 -3.45922,-3.00963 0.20102,-0.21705 c 0.36286,-0.39184 0.33965,-0.99933 -0.0522,-1.36219 l -0.4129,-0.3824 c -0.39182,-0.36286 -0.99933,-0.33966 -1.36219,0.0522 l -1.55856,1.6831 -6.56549,-7.70599 -0.17105,0.2403 -1.13481,-1.21853 -0.52917,0.13126 c 0.0441,-0.12008 0.067,-0.24926 0.0672,-0.37983 9e-5,-0.53649 -0.37404,-0.97147 -0.83561,-0.97151 -0.22702,2.6e-4 -0.44418,0.10794 -0.60151,0.29817 l -0.0698,-0.25993 0.008,-0.62942 -2.186947,-0.007 -0.08992,-1.05472 -0.557588,-0.57413 0.03152,1.50637 -3.897437,0.13074 0.06563,3.12643 -1.506368,1.81642 -0.799952,4.60076 -0.423227,5.71851 -2.813783,0.3514 0.197403,-5.01158 -1.727541,-0.25787 0.06098,-8.84183 0.145727,-9.7642604 9.01237,0.16226 1.923396,1.14825 1.037147,-1.29811 -0.702801,-2.4846 z M 60.515288,17.386305 c 0.18481,5e-5 0.33454,0.17432 0.33435,0.38912 -6e-5,0.2146 -0.14972,0.38855 -0.33435,0.38861 -0.18463,-6e-5 -0.33429,-0.17401 -0.33435,-0.38861 -1.9e-4,-0.2148 0.14955,-0.38907 0.33435,-0.38912 z m -0.1881,1.83761 0.15761,0.50178 0.69815,0.66611 0.52762,0.59066 -0.23358,0.32814 c 1.13961,1.0652 2.644,2.67995 4.23488,4.45761 l -0.80305,0.7121 c -0.003,10e-4 -0.005,0.003 -0.008,0.004 l -0.37517,-0.40773 0.2098,-0.19378 -2.79931,-3.14503 -0.25993,0.23978 -0.46974,-0.51108 c 0.015,-0.0728 0.0382,-0.14201 0.0382,-0.22014 9e-5,-0.5365 -0.37405,-0.97148 -0.83561,-0.97152 -0.1689,2.6e-4 -0.33376,0.0601 -0.47284,0.17156 l -0.30902,-0.30592 -0.0667,-0.66869 -1.917706,-0.0129 -0.0011,-0.38965 2.275836,0.0357 -0.0248,-0.84181 z m 0.0822,2.63343 c 0.18478,6e-5 0.33453,0.17432 0.33434,0.38912 -5e-5,0.2146 -0.14973,0.38855 -0.33434,0.38861 -0.18463,-5e-5 -0.3343,-0.17401 -0.33435,-0.38861 -1.9e-4,-0.2148 0.14954,-0.38906 0.33435,-0.38912 z m 4.88549,4.95835 c 0.12079,0.003 0.24149,0.0575 0.32039,0.14573 0.1279,0.14305 0.10964,0.32941 -0.0408,0.41651 -0.15083,0.0869 -0.37682,0.0413 -0.50488,-0.1018 -0.12791,-0.14304 -0.10964,-0.32941 0.0408,-0.41651 0.0524,-0.0302 0.11641,-0.0454 0.18449,-0.0439 z m 7.0099,0.72812 4.02353,3.49953 h 11.1094 l 0.0269,0.44132 c -0.98067,0.0791 -1.04435,0.0288 -2.93264,0.0248 l 0.009,0.97978 h -3.4737 v 1.3193 l -5.3635,-0.0341 -4.41575,-5.18314 c 0.0716,-0.0447 0.13875,-0.0998 0.19895,-0.16485 z m 17.76429,0.39843 h 8.51111 v 1.01234 c 0,0.17182 0.0448,0.33291 0.12299,0.47232 l -11.60342,0.0346 v -0.77722 h 2.96932 z m -0.16794,3.1011 h 3.1936 l -0.0785,1.19063 -4.27157,-0.0636 0.0207,-0.38138 1.17202,0.031 z m 3.57755,0 h 2.87993 l -0.0822,1.07746 -1.83555,0.0501 -0.0718,-1.08314 z" />
    <path
       id="path27256-0-8-8-3"
       style="font-variation-settings:normal;vector-effect:none;fill:#ffffff;fill-opacity:0.75388;fill-rule:evenodd;stroke:none;stroke-width:4.16507;stroke-linecap:butt;stroke-linejoin:miter;stroke-miterlimit:4;stroke-dasharray:none;stroke-dashoffset:0;stroke-opacity:1;-inkscape-stroke:none;stop-color:#000000"
       d="m 30.951148,29.253435 a 5.9999232,6.8265804 0 0 0 -6,6.82652 5.9999232,6.8265804 0 0 0 6,6.82651 5.9999232,6.8265804 0 0 0 6,-6.82651 5.9999232,6.8265804 0 0 0 -6,-6.82652 z m 0,3.16964 a 3.2142445,3.6570966 0 0 1 3.214381,3.65688 3.2142445,3.6570966 0 0 1 -3.214381,3.65731 3.2142445,3.6570966 0 0 1 -3.214381,-3.65731 3.2142445,3.6570966 0 0 1 3.214381,-3.65688 z" />
    <path
       id="path27256-0-8-8-3-0"
       style="font-variation-settings:normal;vector-effect:none;fill:#ffffff;fill-opacity:0.75388;fill-rule:evenodd;stroke:none;stroke-width:4.16507;stroke-linecap:butt;stroke-linejoin:miter;stroke-miterlimit:4;stroke-dasharray:none;stroke-dashoffset:0;stroke-opacity:1;-inkscape-stroke:none;stop-color:#000000"
       d="m 56.455261,29.253435 a 5.9999232,6.8265804 0 0 0 -6,6.82652 5.9999232,6.8265804 0 0 0 6,6.82651 5.9999232,6.8265804 0 0 0 5.999997,-6.82651 5.9999232,6.8265804 0 0 0 -5.999997,-6.82652 z m 0,3.16964 a 3.2142445,3.6570966 0 0 1 3.214377,3.65688 3.2142445,3.6570966 0 0 1 -3.214377,3.65731 3.2142445,3.6570966 0 0 1 -3.214381,-3.65731 3.2142445,3.6570966 0 0 1 3.214381,-3.65688 z" />
    <text
       xml:space="preserve"
       style="font-size:15.3054px;line-height:1.25;font-family:sans-serif;word-spacing:0px;fill:#ff3300;fill-opacity:1;stroke-width:0.264582"
       x="81.474419"
       y="19.541929"
       id="text37718"
       transform="scale(0.8725147,1.1461125)"><tspan
         sodipodi:role="line"
         id="tspan37716"
         style="font-style:italic;font-variant:normal;font-weight:bold;font-stretch:condensed;font-family:Arial;-inkscape-font-specification:'Arial Bold Italic Condensed';fill:#ff3300;fill-opacity:1;stroke-width:0.264582"
         x="81.474419"
         y="19.541929">RESEFER</tspan></text>
  </g>
</svg>
