<?xml version="1.0" encoding="UTF-8" standalone="no"?>
<!-- Created with Inkscape (http://www.inkscape.org/) -->

<svg
   width="221.39mm"
   height="221.39mm"
   viewBox="0 0 221.39 221.39"
   version="1.1"
   id="svg5"
   inkscape:version="1.1.1 (3bf5ae0d25, 2021-09-20)"
   sodipodi:docname="logo_bov_ico.svg"
   xmlns:inkscape="http://www.inkscape.org/namespaces/inkscape"
   xmlns:sodipodi="http://sodipodi.sourceforge.net/DTD/sodipodi-0.dtd"
   xmlns="http://www.w3.org/2000/svg"
   xmlns:svg="http://www.w3.org/2000/svg">
  <sodipodi:namedview
     id="namedview7"
     pagecolor="#ffffff"
     bordercolor="#666666"
     borderopacity="1.0"
     inkscape:pageshadow="2"
     inkscape:pageopacity="0.0"
     inkscape:pagecheckerboard="0"
     inkscape:document-units="mm"
     showgrid="false"
     inkscape:zoom="0.42582772"
     inkscape:cx="663.41383"
     inkscape:cy="374.56462"
     inkscape:window-width="1024"
     inkscape:window-height="705"
     inkscape:window-x="-8"
     inkscape:window-y="-8"
     inkscape:window-maximized="1"
     inkscape:current-layer="layer1" />
  <defs
     id="defs2" />
  <g
     inkscape:label="Capa 1"
     inkscape:groupmode="layer"
     id="layer1">
    <path
       id="path858"
       style="font-variation-settings:normal;opacity:1;vector-effect:none;fill:#ff9900;fill-opacity:1;fill-rule:evenodd;stroke:none;stroke-width:4.16507;stroke-linecap:butt;stroke-linejoin:miter;stroke-miterlimit:4;stroke-dasharray:none;stroke-dashoffset:0;stroke-opacity:1;-inkscape-stroke:none;stop-color:#000000;stop-opacity:1"
       d="M 110.61966,0 A 110.61949,110.61933 0 0 0 0,110.61957 110.61949,110.61933 0 0 0 110.61966,221.23866 110.61949,110.61933 0 0 0 221.23928,110.61957 110.61949,110.61933 0 0 0 110.61966,0 Z m 10.25004,21.217823 a 90.00012,89.999999 0 0 1 78.74505,77.033515 l -78.74505,-0.16071 z m -20.50011,0.208256 V 199.81257 a 90.00012,89.999999 0 0 1 -79.750172,-89.193 90.00012,89.999999 0 0 1 79.750172,-89.193491 z m 20.50011,97.164581 79.07165,0.16123 a 90.00012,89.999999 0 0 1 -79.07165,81.06068 z" />
  </g>
</svg>
