<?xml version="1.0" encoding="UTF-8" standalone="no"?>
<!-- Created with Inkscape (http://www.inkscape.org/) -->

<svg
   width="15mm"
   height="15mm"
   viewBox="0 0 15 15"
   version="1.1"
   id="svg1"
   inkscape:version="1.3 (0e150ed6c4, 2023-07-21)"
   sodipodi:docname="logo_resef.svg"
   xmlns:inkscape="http://www.inkscape.org/namespaces/inkscape"
   xmlns:sodipodi="http://sodipodi.sourceforge.net/DTD/sodipodi-0.dtd"
   xmlns:xlink="http://www.w3.org/1999/xlink"
   xmlns="http://www.w3.org/2000/svg"
   xmlns:svg="http://www.w3.org/2000/svg">
  <sodipodi:namedview
     id="namedview1"
     pagecolor="#ffffff"
     bordercolor="#000000"
     borderopacity="0.25"
     inkscape:showpageshadow="2"
     inkscape:pageopacity="0.0"
     inkscape:pagecheckerboard="0"
     inkscape:deskcolor="#d1d1d1"
     inkscape:document-units="mm"
     inkscape:zoom="13.705417"
     inkscape:cx="28.346457"
     inkscape:cy="28.346457"
     inkscape:window-width="1920"
     inkscape:window-height="991"
     inkscape:window-x="-9"
     inkscape:window-y="-9"
     inkscape:window-maximized="1"
     inkscape:current-layer="layer1" />
  <defs
     id="defs1">
    <linearGradient
       id="linearGradient2"
       inkscape:collect="always">
      <stop
         style="stop-color:#f9f9f9;stop-opacity:1;"
         offset="0"
         id="stop2" />
      <stop
         style="stop-color:#f9f9f9;stop-opacity:0;"
         offset="1"
         id="stop3" />
    </linearGradient>
    <linearGradient
       inkscape:collect="always"
       xlink:href="#linearGradient2"
       id="linearGradient3"
       x1="3.4942086"
       y1="1.5057915"
       x2="10.521235"
       y2="12.760618"
       gradientUnits="userSpaceOnUse" />
  </defs>
  <g
     inkscape:label="Capa 1"
     inkscape:groupmode="layer"
     id="layer1">
    <path
       id="path1"
       style="fill:url(#linearGradient3);stroke-width:0.362335;fill-opacity:1"
       d="M 7.5193066,0.23163236 A 7.3068686,7.1717892 0 0 0 0.21211277,7.4031466 7.3068686,7.1717892 0 0 0 7.5193066,14.575387 7.3068686,7.1717892 0 0 0 14.826501,7.4031466 7.3068686,7.1717892 0 0 0 7.5193066,0.23163236 Z M 7.7121449,6.2621909 A 1.067729,1.1002176 0 0 1 8.7803313,7.3624241 1.067729,1.1002176 0 0 1 7.7121449,8.4626575 1.067729,1.1002176 0 0 1 6.6446471,7.3624241 1.067729,1.1002176 0 0 1 7.7121449,6.2621909 Z" />
  </g>
</svg>
