<?xml version="1.0" encoding="UTF-8" standalone="no"?>
<!-- Created with Inkscape (http://www.inkscape.org/) -->

<svg
   width="221.39mm"
   height="221.39mm"
   viewBox="0 0 221.39 221.39"
   version="1.1"
   id="svg5"
   inkscape:version="1.1.1 (3bf5ae0d25, 2021-09-20)"
   sodipodi:docname="logo_bov_ico.svg"
   xmlns:inkscape="http://www.inkscape.org/namespaces/inkscape"
   xmlns:sodipodi="http://sodipodi.sourceforge.net/DTD/sodipodi-0.dtd"
   xmlns="http://www.w3.org/2000/svg"
   xmlns:svg="http://www.w3.org/2000/svg">
  <sodipodi:namedview
     id="namedview7"
     pagecolor="#ffffff"
     bordercolor="#666666"
     borderopacity="1.0"
     inkscape:pageshadow="2"
     inkscape:pageopacity="0.0"
     inkscape:pagecheckerboard="0"
     inkscape:document-units="mm"
     showgrid="false"
     inkscape:zoom="0.42582772"
     inkscape:cx="663.41383"
     inkscape:cy="374.56462"
     inkscape:window-width="1024"
     inkscape:window-height="705"
     inkscape:window-x="-8"
     inkscape:window-y="-8"
     inkscape:window-maximized="1"
     inkscape:current-layer="layer1" />
  <defs
     id="defs2" />
  <g
     inkscape:label="Capa 1"
     inkscape:groupmode="layer"
     id="layer1">
    <rect
       style="fill:#ff6600;fill-rule:evenodd;stroke-width:0.264583"
       id="rect1553"
       width="221.81799"
       height="220.5753"
       x="-8.2299296e-09"
       y="-8.4294435e-08"
       ry="32.930962" />
    <path
       id="path858"
       style="font-variation-settings:normal;opacity:1;vector-effect:none;fill:#ffffff;fill-opacity:1;fill-rule:evenodd;stroke:none;stroke-width:4.16507;stroke-linecap:butt;stroke-linejoin:miter;stroke-miterlimit:4;stroke-dasharray:none;stroke-dashoffset:0;stroke-opacity:1;-inkscape-stroke:none;stop-color:#000000;stop-opacity:1"
       d="M 111.21342,8.6987448 A 104.99986,103.79857 0 0 0 6.2133891,112.49754 104.99986,103.79857 0 0 0 111.21342,216.2959 104.99986,103.79857 0 0 0 216.21339,112.49754 104.99986,103.79857 0 0 0 111.21342,8.6987448 Z m 9.72932,19.9095392 a 85.427988,84.450629 0 0 1 74.74468,72.283656 l -74.74468,-0.15081 z m -19.45867,0.195415 V 196.19093 A 85.427988,84.450629 0 0 1 25.785311,112.49754 85.427988,84.450629 0 0 1 101.48407,28.803699 Z m 19.45867,91.173441 75.05468,0.15129 a 85.427988,84.450629 0 0 1 -75.05468,76.0625 z" />
  </g>
</svg>
