<?xml version="1.0" encoding="UTF-8" standalone="no"?>
<!-- Created with Inkscape (http://www.inkscape.org/) -->

<svg
   width="100mm"
   height="100mm"
   viewBox="0 0 100 100"
   version="1.1"
   id="svg5"
   inkscape:version="1.1.1 (3bf5ae0d25, 2021-09-20)"
   sodipodi:docname="loguito.svg"
   xmlns:inkscape="http://www.inkscape.org/namespaces/inkscape"
   xmlns:sodipodi="http://sodipodi.sourceforge.net/DTD/sodipodi-0.dtd"
   xmlns="http://www.w3.org/2000/svg"
   xmlns:svg="http://www.w3.org/2000/svg">
  <sodipodi:namedview
     id="namedview7"
     pagecolor="#ffffff"
     bordercolor="#666666"
     borderopacity="1.0"
     inkscape:pageshadow="2"
     inkscape:pageopacity="0.0"
     inkscape:pagecheckerboard="0"
     inkscape:document-units="mm"
     showgrid="false"
     width="100mm"
     inkscape:zoom="0.42582772"
     inkscape:cx="682.20077"
     inkscape:cy="454.40912"
     inkscape:window-width="1024"
     inkscape:window-height="705"
     inkscape:window-x="-8"
     inkscape:window-y="-8"
     inkscape:window-maximized="1"
     inkscape:current-layer="layer1" />
  <defs
     id="defs2" />
  <g
     inkscape:label="Capa 1"
     inkscape:groupmode="layer"
     id="layer1">
    <path
       id="path31"
       style="opacity:1;fill:#ffffff;stroke-width:0.263469;image-rendering:auto;fill-opacity:1"
       d="M 50.00087,1.8585233 A 48.141382,47.831223 0 0 0 1.8595574,49.689679 48.141382,47.831223 0 0 0 50.00087,97.520826 48.141382,47.831223 0 0 0 98.14253,49.689679 48.141382,47.831223 0 0 0 50.00087,1.8585233 Z M 46.839949,9.0498958 V 90.329449 A 41.15212,40.886988 0 0 1 8.8488491,49.689679 41.15212,40.886988 0 0 1 46.839949,9.0498958 Z m 7.180394,0.067006 A 41.15212,40.886988 0 0 1 90.782625,45.007817 L 54.020343,45.219669 Z M 90.79879,54.16421 A 41.15212,40.886988 0 0 1 54.020343,90.262437 V 54.376076 Z"
       inkscape:export-filename="C:\proyectos\bov\frontend\web\img\loguito.png"
       inkscape:export-xdpi="96"
       inkscape:export-ydpi="96" />
  </g>
</svg>
